<?xml version="1.0" encoding="UTF-8"?>
<!-- Generator: Adobe Illustrator 17.0.0, SVG Export Plug-In . SVG Version: 6.00 Build 0)  -->
<!DOCTYPE svg PUBLIC "-//W3C//DTD SVG 1.1//EN" "http://www.w3.org/Graphics/SVG/1.1/DTD/svg11.dtd">
<svg version="1.1" id="Layer_1" xmlns="http://www.w3.org/2000/svg" xmlns:xlink="http://www.w3.org/1999/xlink" x="0px" y="0px" width="217px" height="17.617px" viewBox="0 0 217 17.617" enable-background="new 0 0 217 17.617" xml:space="preserve">
<g>
	<path fill-rule="evenodd" clip-rule="evenodd" fill="#222526" d="M28.482,0H0v17.615h28.482V0 M51.318,12.796   c0.413,0,0.769,0.008,1.206-0.008c0.299-0.011,0.379-0.008,0.643-0.023c0.563-0.042,1.359-0.046,2.044-0.279   c0.233-0.08,0.467-0.188,0.616-0.276c0.383-0.249,0.44-0.433,0.532-0.662c0.13-0.478,0.073-0.823,0.084-1.202h6.875V6.848h-7.054   c0-0.176-0.004-0.149,0-0.264c-0.008-0.325,0.061-0.789-0.425-1.175c-0.455-0.322-1.129-0.505-1.699-0.536   c-0.188-0.011-0.371-0.019-0.501-0.023c-0.413-0.019-0.463-0.019-0.766-0.019h-5.668c-0.375,0-0.441-0.004-0.678,0   c-0.367,0.008-0.85,0.011-1.275,0.031c-0.647,0.042-1.462,0.05-2.209,0.375c-0.199,0.088-0.402,0.191-0.551,0.318   c-0.406,0.375-0.536,0.815-0.586,1.221c-0.042,0.367-0.054,0.658-0.054,0.953c0,0.792,0,1.623,0,2.369   c0,0.341,0.034,0.934,0.291,1.401c0.103,0.184,0.272,0.375,0.486,0.555c0.092,0.077,0.184,0.142,0.387,0.23   c0.425,0.18,1.156,0.371,1.749,0.425c0.31,0.031,0.616,0.05,0.919,0.061c0.306,0.011,0.612,0.023,0.8,0.027   c0.41,0.008,0.444,0,0.72,0H51.318z M173.104,13.121c0.119-0.004,0.138,0,0.256-0.004c0.276-0.015,0.723-0.015,1.083-0.126   c0.191-0.065,0.36-0.103,0.521-0.283c0.306-0.364,0.272-0.712,0.111-1.083c-0.092-0.188-0.39-0.329-0.678-0.425   c-0.344-0.111-0.681-0.134-1.022-0.145c-0.505-0.019-0.792-0.035-1.267-0.05l-11.119-0.253c-0.119-0.004-0.291-0.011-0.482-0.015   c-0.199-0.008-0.609-0.023-1.041-0.05c-1.187-0.065-2.484-0.226-3.671-0.746c-0.23-0.103-0.459-0.237-0.681-0.413   c-0.222-0.176-0.44-0.398-0.555-0.521c-0.203-0.214-0.142-0.168-0.199-0.233c-0.031-0.042-0.054-0.073-0.077-0.107v2.565h6.974   c0.05,0.352-0.172,0.723,0.161,1.355c0.157,0.172,0.126,0.142,0.264,0.214c0.333,0.168,0.907,0.283,1.359,0.295   c0.463,0.011,0.731,0.027,1.171,0.027L173.104,13.121z M99.98,8.371c3.675,0,7.315,0,11.024,0c0.283-0.023,1.007,0.031,1.6-0.364   c0.387-0.31,0.498-0.919,0.471-1.336c0.008-0.509-0.019-1.125-0.727-1.435c-0.222-0.103-0.452-0.153-0.677-0.18   c-0.253-0.027-0.478-0.042-0.658-0.042c-3.717-0.004-7.353,0-11.031-0.004V8.371z M33.956,11.2c0,0.1,0.004,0.237,0.008,0.341   c0.004,0.057,0.008,0.134,0.023,0.322c0.027,0.398,0.096,1.11,0.314,1.692c0.222,0.597,0.555,1.21,1.179,1.814   c0.643,0.612,1.504,1.125,2.274,1.416c1.041,0.402,2.27,0.617,3.342,0.701c0.658,0.057,1.313,0.088,1.971,0.107   c0.329,0.008,0.658,0.019,0.892,0.023c0.513,0.004,0.566,0,0.8,0c0.126,0,0.299,0,0.471,0h7.912c0.203,0,0.494-0.004,0.819-0.008   c0.145,0,0.299-0.004,0.647-0.011c0.746-0.019,2.025-0.046,3.07-0.131c0.547-0.042,1.091-0.107,1.642-0.207   c0.547-0.099,1.095-0.237,1.458-0.344c0.693-0.214,0.869-0.337,1.278-0.552c0.188-0.103,0.375-0.226,0.559-0.371   c0.188-0.145,0.371-0.314,0.49-0.433c0.291-0.295,0.352-0.402,0.494-0.605c0.111-0.157,0.157-0.276,0.222-0.421   c0.065-0.088,0.103,0.08,0.138,0.145c0.077,0.176,0.41,0.628,0.819,0.991c0.096,0.088,0.188,0.168,0.414,0.314   c0.478,0.322,1.328,0.743,2.021,0.926c1.772,0.49,3.56,0.609,5.324,0.666c0.349,0.008,0.697,0.015,0.95,0.023   c0.429,0.008,0.639,0.011,0.926,0.011c0.176,0.004,0.295,0.004,0.406,0.004h7.897c0.184,0,0.44-0.004,0.731-0.008   c0.126,0,0.268,0,0.593-0.011c0.7-0.027,1.925-0.073,2.921-0.199c0.521-0.069,1.041-0.161,1.566-0.302   c0.521-0.142,1.045-0.333,1.37-0.467c0.62-0.26,0.7-0.352,1.026-0.547c0.142-0.092,0.283-0.199,0.425-0.322   c0.142-0.126,0.279-0.268,0.356-0.352c0.149-0.153,0.126-0.134,0.176-0.195c0.096-0.134,0.195-0.245,0.302-0.44v2.633h7.801v-4.23   h10.193c0.184,0,0.475,0.004,0.685,0.015c0.367,0.019,0.877,0.031,1.313,0.165c0.153,0.046,0.314,0.1,0.421,0.165   c0.413,0.31,0.383,0.601,0.425,1.03v2.855h7.755c0-1.267,0.004-2.572,0-3.797c0-0.069-0.004-0.18-0.011-0.283   c-0.015-0.306-0.161-0.949-0.57-1.458c-0.563-0.677-0.98-0.9-1.661-1.194c-0.157-0.065-0.191-0.065-0.314-0.103   c-0.103-0.05,0.088-0.073,0.16-0.1c0.211-0.073,0.796-0.329,1.202-0.681c0.122-0.103,0.253-0.218,0.425-0.436   c0.383-0.471,0.773-1.244,0.865-1.895c0.065-0.337,0.092-0.678,0.1-1.014c0.011-0.337,0-0.674-0.004-0.873   c-0.019-0.398-0.027-0.352-0.042-0.574c-0.004-0.023-0.008-0.038-0.008-0.054h8.865v12.463h7.77V4.942h8.976v12.463h7.759v-1.791   c0.054,0.077,0.146,0.172,0.253,0.279c0.046,0.042,0.088,0.088,0.23,0.199c0.31,0.253,0.904,0.624,1.378,0.774   c0.249,0.088,0.501,0.157,0.75,0.222c1.167,0.31,2.81,0.436,4.279,0.486c0.39,0.011,0.785,0.019,1.053,0.026   c0.459,0.008,0.643,0.011,0.93,0.011c0.172,0.004,0.291,0.004,0.398,0.004h9.424c0.188,0,0.456,0,0.754-0.007   c0.134,0,0.276-0.004,0.578-0.011c0.632-0.016,1.696-0.023,2.568-0.081c0.455-0.031,0.907-0.077,1.363-0.153   c0.456-0.08,0.911-0.191,1.24-0.287c0.635-0.191,0.922-0.329,1.366-0.563c0.635-0.344,1.478-1.053,1.826-1.845   c0.655-1.566,0.498-3.104,0.168-4.662c-0.092-0.322-0.23-0.647-0.429-0.972c-0.417-0.693-1.037-1.229-1.581-1.508   c-0.566-0.318-1.125-0.505-1.688-0.635c-0.716-0.168-1.309-0.245-1.856-0.295c-0.436-0.034-1.095-0.088-1.669-0.084   c-3.958-0.069-7.9-0.142-11.785-0.211c-0.069,0-0.18,0-0.279-0.008c-0.291-0.019-0.922-0.011-1.397-0.184   c-0.142-0.046-0.283-0.103-0.383-0.168c-0.402-0.337-0.364-0.704-0.203-1.087c0.085-0.088,0.111-0.168,0.318-0.26   c0.429-0.172,1.102-0.256,1.654-0.261c0.191-0.004,0.379-0.004,0.498-0.008c0.253,0,0.272,0,0.436,0c2.733,0,5.5,0,8.203,0   c0.276,0.004,0.364,0.019,0.658,0.058c0.226,0.026,0.448,0.065,0.674,0.191c0.666,0.413,0.59,0.723,0.59,1.328   c0,0.042,0,0.092,0,0.134h7.479c0.031-0.352,0.05-0.501,0.08-0.846c0.023-0.191,0.027-0.593-0.012-1.03   c-0.08-0.781-0.26-1.516-1.03-2.377c-0.758-0.746-1.673-1.125-2.511-1.332c-1.041-0.264-1.948-0.356-2.886-0.398   c-0.222-0.011-0.448-0.019-0.609-0.023c-0.36-0.015-0.509-0.015-0.835-0.019h-10.798c-0.191,0.004-0.467,0.004-0.777,0.008   c-0.142,0.004-0.291,0.004-0.582,0.011c-0.612,0.011-1.615,0.027-2.446,0.084c-0.433,0.031-0.865,0.077-1.298,0.142   c-0.433,0.069-0.869,0.161-1.183,0.245c-0.609,0.165-0.888,0.294-1.313,0.501c-0.203,0.1-0.406,0.222-0.605,0.379   c-0.199,0.153-0.394,0.337-0.501,0.44c-0.191,0.176-0.149,0.134-0.203,0.195c-0.088,0.115-0.184,0.218-0.291,0.39V0.222h-34.197   v2.354c-0.054-0.092-0.149-0.211-0.26-0.341c-0.046-0.054-0.088-0.107-0.264-0.253c-0.375-0.329-1.114-0.823-1.703-1.011   c-1.566-0.544-3.123-0.651-4.689-0.708c-0.314-0.011-0.624-0.019-0.85-0.023c-0.383-0.011-0.57-0.015-0.831-0.015   c-0.157-0.004-0.264-0.004-0.364-0.004H85.11c0,3.418,0,6.859-0.004,10.247c0,0.302-0.038,0.601-0.161,0.999   c-0.096,0.218-0.211,0.478-0.567,0.727c-0.601,0.387-1.443,0.532-2.166,0.57c-0.249,0.019-0.494,0.034-0.639,0.042   c-0.295,0.011-0.322,0.004-0.433,0.008c-0.241,0.015-0.122,0.011-0.279,0.011c-0.088,0-0.253,0-0.413,0H76.44   c-0.008,0-0.299,0-0.536,0c-0.038,0-0.081,0-0.257-0.004c-0.387-0.008-1.144-0.011-1.738-0.061   c-0.314-0.023-0.628-0.065-0.942-0.138s-0.628-0.18-0.819-0.253c-0.352-0.142-0.39-0.211-0.563-0.36   c-0.436-0.444-0.455-0.846-0.505-1.401c-0.007-0.214,0-0.138-0.004-0.264V0.222h-7.759v2.297c-0.038-0.061-0.088-0.126-0.138-0.199   c-0.069-0.119-0.455-0.532-0.75-0.766c-0.122-0.1-0.249-0.191-0.371-0.276c-0.122-0.084-0.245-0.161-0.551-0.295   c-0.658-0.295-1.837-0.643-2.794-0.743c-0.501-0.061-1.003-0.1-1.5-0.13c-0.501-0.031-0.999-0.054-1.301-0.065   c-0.559-0.015-0.582-0.004-0.838-0.011c-0.421-0.008-0.67-0.004-1.099-0.015c-0.23-0.004-0.444-0.004-0.693-0.004   c-0.069-0.004-0.103-0.004-0.142-0.004h-7.912c-0.18,0-0.433,0.004-0.72,0.008c-0.126,0-0.264,0.004-0.632,0.015   c-0.785,0.023-2.201,0.065-3.342,0.211c-0.597,0.073-1.198,0.18-1.799,0.341c-0.597,0.165-1.198,0.383-1.558,0.532   c-0.359,0.149-0.478,0.226-0.605,0.302c-0.253,0.149-0.513,0.31-0.773,0.525c-0.13,0.103-0.26,0.218-0.452,0.436   c-0.417,0.463-0.892,1.217-1.068,1.849c-0.103,0.333-0.176,0.662-0.222,0.995c-0.046,0.329-0.069,0.662-0.08,0.857   c-0.027,0.39-0.019,0.356-0.023,0.57C33.956,8.191,33.956,9.684,33.956,11.2L33.956,11.2z M217,0h-28.467v17.615H217V0z"/>
	<path fill-rule="evenodd" clip-rule="evenodd" fill="#FFFFFF" d="M215.572,1.443h-25.611v3.82h25.611V1.443 M215.572,16.187v-3.839   h-25.611v3.839H215.572z M215.572,6.986h-25.611v3.64h25.611V6.986z M27.039,1.443h-25.6v3.82h25.6V1.443z M27.039,16.187v-3.839   h-25.6v3.839H27.039z M27.039,6.986h-25.6v3.64h25.6V6.986z M82.713,16.172c0.142,0,0.344,0,0.566-0.004   c0.103-0.004,0.211-0.008,0.501-0.015c0.624-0.011,1.761-0.038,2.676-0.145c0.478-0.057,0.957-0.13,1.432-0.245   c0.478-0.119,0.953-0.272,1.248-0.379c0.555-0.207,0.624-0.268,0.911-0.436c0.502-0.287,1.08-1.037,1.225-1.673   c0.046-0.172,0.08-0.348,0.103-0.524c0.023-0.176,0.034-0.352,0.042-0.459c0.019-0.226,0.019-0.233,0.019-0.375V1.665h-4.899v8.681   c0,0.103-0.004,0.233-0.011,0.387c-0.011,0.134-0.038,0.417-0.096,0.72c-0.122,0.578-0.325,1.129-0.942,1.699   c-0.49,0.417-1.24,0.762-1.875,0.888c-0.329,0.069-0.655,0.107-0.984,0.138c-0.325,0.027-0.655,0.046-0.842,0.054   c-0.344,0.019-0.302,0.019-0.433,0.023c-0.276,0.015-0.509,0.011-0.907,0.015h-4.008c-0.011,0-0.337-0.004-0.605,0   c-0.046,0-0.092,0-0.295-0.004c-0.429-0.008-1.313-0.023-1.994-0.088c-0.352-0.034-0.697-0.088-1.049-0.176   c-0.352-0.092-0.712-0.222-0.942-0.314c-0.394-0.165-0.467-0.241-0.666-0.375c-0.436-0.306-0.739-0.75-0.961-1.259   c-0.069-0.165-0.119-0.322-0.161-0.505c-0.038-0.184-0.069-0.394-0.088-0.544c-0.031-0.291-0.034-0.41-0.031-0.478   c0-2.909,0-5.906,0-8.861h-4.899v10.251c0,0.111,0,0.256,0.011,0.421c0.027,0.356,0.08,1.087,0.452,1.65   c0.528,0.834,1.301,1.16,1.987,1.393c0.18,0.065,0.36,0.13,0.697,0.218c0.712,0.188,1.864,0.387,2.825,0.448   c0.498,0.038,0.995,0.061,1.497,0.077c0.498,0.019,0.995,0.027,1.313,0.034c0.536,0.008,0.647,0.011,0.926,0.015   c0.153,0,0.261,0,0.36,0H82.713z M35.399,11.215c0,0.165,0.004,0.371,0.015,0.555c0.034,0.429,0.119,1.336,0.635,2.048   c0.138,0.199,0.302,0.402,0.528,0.605c0.735,0.658,1.669,1.06,2.507,1.271c1.24,0.348,2.645,0.425,4.008,0.463   c0.348,0.008,0.697,0.011,0.938,0.015c0.486,0.004,0.563,0,0.796,0c0.115,0,0.256,0,0.402,0h7.912c0.172,0,0.371,0,0.681-0.004   c0.1-0.004,0.168-0.004,0.279-0.008c0.111,0,0.268-0.004,0.597-0.011c0.708-0.019,1.918-0.031,2.932-0.115   c0.532-0.046,1.072-0.111,1.608-0.226c0.532-0.114,1.064-0.276,1.393-0.39c0.325-0.111,0.444-0.18,0.566-0.245   c0.387-0.211,0.651-0.371,0.976-0.72c0.337-0.375,0.574-0.899,0.662-1.37c0.031-0.138,0.05-0.268,0.065-0.429   c0.023-0.241,0.049-0.505,0.042-0.666c-0.004-0.057-0.004-0.126,0-0.199h-5.156c-0.092,0.306-0.157,0.532-0.405,0.903   c-0.176,0.233-0.261,0.356-0.528,0.563c-0.344,0.268-0.919,0.563-1.393,0.67c-0.249,0.065-0.498,0.107-0.746,0.142   c-0.842,0.122-1.508,0.142-2.197,0.161c-0.44,0.015-0.754,0.011-1.198,0.011h-4.115c-0.111,0-0.268,0-0.444,0   c-0.077,0.004-0.161,0.004-0.394-0.004c-0.505-0.015-1.428-0.038-2.17-0.142c-0.39-0.057-0.781-0.138-1.171-0.276   c-0.39-0.138-0.781-0.329-1.026-0.467c-0.436-0.253-0.501-0.379-0.724-0.612c-0.532-0.632-0.739-1.278-0.815-1.964   c-0.015-0.146-0.023-0.295-0.03-0.387c-0.015-0.203-0.015-0.226-0.019-0.363V7.728c0.004-0.123,0.004-0.287,0.011-0.471   c0.015-0.165,0.031-0.482,0.084-0.827c0.069-0.417,0.203-0.827,0.452-1.244c0.455-0.777,1.133-1.125,1.734-1.359   c1.049-0.352,2.109-0.398,3.15-0.429c0.207-0.004,0.413-0.008,0.563-0.011c0.341,0,0.494,0,0.811,0c1.902,0,3.847,0,5.711,0   c0.057,0,0.153,0,0.245,0c0.054,0,0.111-0.004,0.287,0.004c0.383,0.019,1.102,0.046,1.677,0.168   c0.302,0.065,0.609,0.161,0.911,0.314c0.302,0.153,0.605,0.364,0.781,0.505c0.325,0.26,0.314,0.322,0.433,0.467   c0.088,0.122,0.211,0.387,0.279,0.559h5.11c0-0.145-0.008-0.394-0.023-0.544c-0.084-0.509-0.122-1.344-1.003-2.113   c-0.532-0.452-1.183-0.685-1.791-0.827c-0.211-0.054-0.417-0.107-0.727-0.161c-0.639-0.111-1.562-0.199-2.362-0.237   c-0.41-0.023-0.82-0.034-1.233-0.046c-0.409-0.011-0.823-0.019-1.098-0.019c-0.276-0.004-0.413-0.004-0.601-0.004   c-0.191,0-0.429,0-0.67,0h-7.912c-0.165,0-0.398,0.004-0.658,0.008c-0.115,0-0.241,0.004-0.582,0.011   c-0.739,0.015-2.078,0.042-3.154,0.176c-0.563,0.069-1.129,0.165-1.696,0.322c-0.563,0.157-1.129,0.367-1.462,0.509   c-0.333,0.138-0.44,0.207-0.547,0.276c-0.478,0.279-1.011,0.792-1.321,1.516c-0.199,0.448-0.302,0.899-0.352,1.351   c-0.023,0.226-0.034,0.452-0.038,0.59c-0.019,0.295-0.019,0.306-0.019,0.494L35.399,11.215z M145.797,3.499V1.665h-24.268v1.833   h9.692v12.463h4.884V3.499H145.797z M147.952,1.665v14.296h4.903V1.665H147.952z M163.875,7.743c-0.172,0-0.364-0.004-0.563-0.015   c-0.433-0.046-1.282-0.057-1.964-0.39c-0.195-0.092-0.398-0.207-0.555-0.337c-0.685-0.616-0.819-1.298-0.75-2.006   c0.1-0.487,0.176-0.884,0.746-1.397c0.425-0.329,0.632-0.379,1.041-0.498c0.662-0.172,0.957-0.165,1.523-0.199   c0.344-0.011,0.643-0.019,0.831-0.019c2.775,0,5.627,0,8.44,0c0.115,0,0.272,0.004,0.444,0.011c0.383,0.038,1.198,0.084,1.849,0.54   c0.184,0.13,0.364,0.295,0.471,0.402c0.191,0.199,0.176,0.226,0.249,0.322c0.073,0.115,0.157,0.283,0.222,0.436h4.873   c0.004-0.283-0.034-0.505-0.111-0.85c-0.111-0.398-0.283-0.75-0.712-1.113c-0.383-0.303-0.98-0.601-1.485-0.746   c-0.26-0.08-0.521-0.138-0.785-0.184c-0.857-0.157-1.52-0.188-2.201-0.219c-0.429-0.008-0.735-0.027-1.16-0.027H163.47   c-0.157,0-0.379,0-0.628,0c-0.115,0-0.233,0-0.544,0.004c-0.666,0.011-1.86,0.015-2.821,0.103c-0.505,0.046-1.014,0.119-1.52,0.249   c-0.505,0.126-1.014,0.314-1.317,0.44c-0.547,0.241-0.566,0.337-0.819,0.544c-0.096,0.096-0.188,0.199-0.268,0.299   c-0.195,0.226-0.341,0.628-0.448,1.06c-0.119,0.509-0.13,1.022-0.119,1.527c0.027,0.838,0.042,1.47,0.455,2.125   c0.498,0.735,1.148,0.938,1.738,1.099c0.704,0.207,1.638,0.306,2.484,0.36c0.226,0.011,0.456,0.023,0.609,0.031   c0.344,0.015,0.456,0.015,0.743,0.019c3.724,0.084,7.479,0.168,11.173,0.249c0.054,0.004,0.161,0.004,0.268,0.008   c0.138,0.007,0.559,0.023,0.995,0.046c0.551,0.023,1.095,0.08,1.646,0.306c0.279,0.111,0.566,0.264,0.781,0.448   c0.616,0.582,0.781,1.252,0.731,1.872c-0.034,0.544-0.199,0.972-0.475,1.324c-0.134,0.195-0.383,0.383-0.663,0.54   c-0.498,0.291-1.041,0.379-1.466,0.413c-0.176,0.019-0.379,0.034-0.501,0.038c-0.302,0.011-0.157,0.004-0.237,0.004   c-0.031,0-0.1,0-0.165,0h-8.88c-0.157,0-0.371,0-0.612-0.004c-0.509-0.027-1.497,0.008-2.282-0.322   c-0.222-0.092-0.452-0.214-0.601-0.314c-0.39-0.291-0.486-0.486-0.628-0.735c-0.092-0.199-0.153-0.341-0.191-0.513h-4.984   c-0.004,0.096-0.008,0.226,0,0.371c0.061,0.44-0.054,1.255,0.735,1.922c0.601,0.475,1.405,0.712,2.117,0.831   c1.087,0.222,2.473,0.31,3.751,0.344c0.337,0.008,0.677,0.011,0.907,0.015c0.394,0.008,0.544,0.011,0.785,0.015   c0.142,0,0.241,0,0.333,0h9.424c0.165,0,0.398,0,0.662-0.004c0.119-0.004,0.245-0.008,0.544-0.011   c0.639-0.019,1.757-0.019,2.66-0.08c0.475-0.031,0.945-0.081,1.42-0.184c0.471-0.099,0.942-0.252,1.24-0.359   c0.555-0.203,0.635-0.276,0.93-0.448c0.329-0.207,0.819-0.689,0.999-1.167c0.218-0.544,0.218-1.076,0.241-1.558   c-0.027-0.647,0.004-1.401-0.26-2.105c-0.092-0.241-0.218-0.482-0.341-0.662c-0.379-0.517-0.727-0.712-1.099-0.903   c-0.279-0.145-0.739-0.302-1.236-0.425c-0.578-0.142-1.164-0.211-1.745-0.253c-0.295-0.019-0.586-0.034-0.769-0.038   c-0.398-0.019-0.444-0.019-0.712-0.019L163.875,7.743z M98.536,9.814L98.536,9.814c4.126,0,8.279,0,12.375,0   c0.188-0.004,0.203-0.008,0.387-0.019c0.417-0.023,1.091-0.073,1.642-0.333c0.188-0.088,0.379-0.203,0.528-0.318   c0.455-0.352,0.662-0.712,0.808-1.076c0.115-0.276,0.191-0.7,0.233-1.167c0.046-0.532,0.015-1.072-0.218-1.604   c-0.115-0.268-0.276-0.532-0.455-0.739c-0.551-0.589-1.148-0.796-1.715-0.888c-0.398-0.065-0.712-0.092-0.991-0.096   c-0.103-0.004-0.188-0.004-0.256-0.004H98.536V9.814z M93.622,15.962h4.915v-4.214c3.897,0,7.828,0,11.686,0   c0.057,0,0.153,0,0.245,0c0.119-0.004,0.509,0.004,0.903,0.027c0.498,0.027,0.995,0.092,1.497,0.295   c0.253,0.103,0.505,0.241,0.677,0.364c0.459,0.36,0.582,0.647,0.723,0.972c0.13,0.329,0.142,0.563,0.165,0.735   c0.011,0.107,0.023,0.245,0.027,0.41v1.412h4.884c0-0.567,0.004-1.175,0-1.703c-0.011-0.39-0.034-0.789-0.249-1.255   c-0.042-0.092-0.092-0.184-0.122-0.238c-0.092-0.164-0.073-0.195-0.153-0.268c-0.138-0.123-0.364-0.291-0.555-0.433   c-0.149-0.118-0.421-0.322-0.716-0.509c-0.356-0.222-0.712-0.398-1.068-0.555c-0.18-0.077-0.36-0.149-0.475-0.195   c-0.253-0.1-0.295-0.1-0.467-0.157c-0.153-0.042,0.05-0.057,0.138-0.08c0.077-0.011,0.413-0.103,0.75-0.23   c0.635-0.241,1.263-0.605,1.929-1.313c0.861-0.93,1.202-1.841,1.187-2.921c-0.008-0.639-0.015-1.175-0.184-1.761   c-0.172-0.574-0.406-0.991-0.945-1.451c-0.096-0.084-0.191-0.157-0.467-0.291c-0.597-0.295-1.699-0.651-2.584-0.739   c-0.467-0.061-0.93-0.092-1.393-0.119c-0.463-0.027-0.926-0.05-1.213-0.061c-0.532-0.019-0.578-0.011-0.838-0.015   c-0.115-0.004-0.226-0.004-0.337-0.004c-0.111,0-0.218,0-0.284,0c-0.13,0-0.107,0-0.172,0H93.621L93.622,15.962z"/>
	<path fill-rule="evenodd" clip-rule="evenodd" fill="#03010E" d="M194.707,14.947h-2.197v-0.448   c0.769,0.004,1.52-0.011,2.304,0.011c0.065,0.004,0.364,0.111,0.122,0.383C194.857,14.94,194.796,14.947,194.707,14.947    M194.6,13.983h-2.09v-0.413c0.731,0.004,1.443-0.008,2.189,0.011c0.054,0.004,0.337,0.1,0.119,0.353   C194.746,13.975,194.684,13.979,194.6,13.983L194.6,13.983z M195.014,15.525c0.41-0.031,0.976,0.077,1.229-0.494   c0.042-0.145,0.061-0.559-0.287-0.697c-0.1-0.046-0.245-0.08-0.39-0.096c0.237-0.027,0.624-0.299,0.566-0.54   c0.023-0.168-0.149-0.467-0.344-0.536c-0.299-0.142-0.563-0.157-0.957-0.165h-3.518v2.526H195.014z"/>
	<rect x="197.008" y="12.999" fill-rule="evenodd" clip-rule="evenodd" fill="#03010E" width="1.198" height="2.526"/>
	<path fill-rule="evenodd" clip-rule="evenodd" fill="#03010E" d="M200.265,13.937v-0.938h-1.202v2.526h1.202v-0.953h0.49   l1.765,0.953c0.551,0,1.106,0.011,1.657-0.008l-2.377-1.271l2.098-1.24l-0.004-0.008h-1.577l-1.562,0.937L200.265,13.937"/>
	<polyline fill-rule="evenodd" clip-rule="evenodd" fill="#03010E" points="208.801,13.619 208.801,12.999 204.537,12.999    204.537,15.525 208.851,15.525 208.851,14.909 205.735,14.909 205.735,14.53 208.625,14.53 208.625,13.994 205.735,13.994    205.735,13.619 208.801,13.619  "/>
	<path fill-rule="evenodd" clip-rule="evenodd" fill="#03010E" d="M209.486,14.683c-0.038,0.279-0.038,0.544,0.256,0.704   c0.245,0.115,0.398,0.122,0.72,0.153c0.658,0.034,1.489,0.011,2.235,0.019c0.23,0,0.459-0.008,0.624-0.015   c0.421-0.042,0.586-0.034,0.896-0.318c0.157-0.237,0.256-0.547-0.054-0.999c-0.371-0.283-0.605-0.241-1.037-0.268l-1.96-0.031   c-0.184,0.034-0.689-0.126-0.344-0.36c0.107-0.034,0.256-0.042,0.444-0.042c0.501,0.004,0.968-0.008,1.508,0.011   c0.145,0.011,0.268,0.13,0.249,0.249h1.156c0.034-0.245,0.004-0.505-0.287-0.658c-0.322-0.149-0.57-0.153-0.976-0.161h-1.818   c-0.226-0.004-0.452,0-0.624,0.015c-0.413,0.05-0.643,0.034-0.9,0.36c-0.092,0.191-0.241,0.578,0.111,0.961   c0.348,0.218,0.567,0.184,0.995,0.207l1.872,0.038c0.195-0.011,0.777,0.038,0.494,0.364c-0.111,0.057-0.191,0.054-0.329,0.057   h-1.497c-0.222,0.015-0.639-0.038-0.551-0.287H209.486"/>
</g>
</svg>